# This file uses centimeters as units for non-parametric coordinates.

mtllib Cylinder_low.mtl
g default1
v 0.450485 -0.500000 -0.216942
v 0.311745 -0.500000 -0.390916
v 0.111261 -0.500000 -0.487464
v -0.111261 -0.500000 -0.487464
v -0.311745 -0.500000 -0.390916
v -0.450485 -0.500000 -0.216942
v -0.500000 -0.500000 0.000000
v -0.450485 -0.500000 0.216942
v -0.311745 -0.500000 0.390916
v -0.111261 -0.500000 0.487464
v 0.111261 -0.500000 0.487464
v 0.311745 -0.500000 0.390916
v 0.450485 -0.500000 0.216942
v 0.500000 -0.500000 0.000000
v 0.450485 0.500000 -0.216942
v 0.311745 0.500000 -0.390916
v 0.111261 0.500000 -0.487464
v -0.111261 0.500000 -0.487464
v -0.311745 0.500000 -0.390916
v -0.450485 0.500000 -0.216942
v -0.500000 0.500000 0.000000
v -0.450485 0.500000 0.216942
v -0.311745 0.500000 0.390916
v -0.111261 0.500000 0.487464
v 0.111261 0.500000 0.487464
v 0.311745 0.500000 0.390916
v 0.450485 0.500000 0.216942
v 0.500000 0.500000 0.000000
v 0.000000 -0.500000 0.000000
v 0.000000 0.500000 0.000000
vt 0.640776 0.088456
vt 0.597420 0.034089
vt 0.534769 0.003918
vt 0.465231 0.003918
vt 0.402580 0.034089
vt 0.359224 0.088456
vt 0.343750 0.156250
vt 0.359224 0.224044
vt 0.402580 0.278411
vt 0.465231 0.308582
vt 0.534769 0.308582
vt 0.597420 0.278411
vt 0.640776 0.224044
vt 0.656250 0.156250
vt 0.375000 0.312500
vt 0.392857 0.312500
vt 0.410714 0.312500
vt 0.428571 0.312500
vt 0.446429 0.312500
vt 0.464286 0.312500
vt 0.482143 0.312500
vt 0.500000 0.312500
vt 0.517857 0.312500
vt 0.535714 0.312500
vt 0.553571 0.312500
vt 0.571428 0.312500
vt 0.589286 0.312500
vt 0.607143 0.312500
vt 0.625000 0.312500
vt 0.375000 0.688440
vt 0.392857 0.688440
vt 0.410714 0.688440
vt 0.428571 0.688440
vt 0.446429 0.688440
vt 0.464286 0.688440
vt 0.482143 0.688440
vt 0.500000 0.688440
vt 0.517857 0.688440
vt 0.535714 0.688440
vt 0.553571 0.688440
vt 0.571428 0.688440
vt 0.589286 0.688440
vt 0.607143 0.688440
vt 0.625000 0.688440
vt 0.640776 0.775956
vt 0.597420 0.721589
vt 0.534769 0.691418
vt 0.465231 0.691418
vt 0.402580 0.721589
vt 0.359224 0.775956
vt 0.343750 0.843750
vt 0.359224 0.911544
vt 0.402580 0.965911
vt 0.465231 0.996082
vt 0.534769 0.996082
vt 0.597420 0.965911
vt 0.640776 0.911544
vt 0.656250 0.843750
vt 0.500000 0.150000
vt 0.500000 0.837500
vn 0.900969 0.000000 -0.433884
vn 0.623490 0.000000 -0.781831
vn 0.623490 0.000000 -0.781831
vn 0.900969 0.000000 -0.433884
vn 0.623490 0.000000 -0.781831
vn 0.222521 0.000000 -0.974928
vn 0.222521 0.000000 -0.974928
vn 0.623490 0.000000 -0.781831
vn 0.222521 0.000000 -0.974928
vn -0.222521 0.000000 -0.974928
vn -0.222521 0.000000 -0.974928
vn 0.222521 0.000000 -0.974928
vn -0.222521 0.000000 -0.974928
vn -0.623490 0.000000 -0.781832
vn -0.623490 0.000000 -0.781832
vn -0.222521 0.000000 -0.974928
vn -0.623490 0.000000 -0.781832
vn -0.900969 0.000000 -0.433884
vn -0.900969 0.000000 -0.433884
vn -0.623490 0.000000 -0.781832
vn -0.900969 0.000000 -0.433884
vn -1.000000 0.000000 -0.000000
vn -1.000000 0.000000 -0.000000
vn -0.900969 0.000000 -0.433884
vn -1.000000 0.000000 -0.000000
vn -0.900969 0.000000 0.433884
vn -0.900969 0.000000 0.433884
vn -1.000000 0.000000 -0.000000
vn -0.900969 0.000000 0.433884
vn -0.623490 0.000000 0.781831
vn -0.623490 0.000000 0.781831
vn -0.900969 0.000000 0.433884
vn -0.623490 0.000000 0.781831
vn -0.222521 0.000000 0.974928
vn -0.222521 0.000000 0.974928
vn -0.623490 0.000000 0.781831
vn -0.222521 0.000000 0.974928
vn 0.222521 0.000000 0.974928
vn 0.222521 0.000000 0.974928
vn -0.222521 0.000000 0.974928
vn 0.222521 0.000000 0.974928
vn 0.623490 0.000000 0.781832
vn 0.623490 0.000000 0.781832
vn 0.222521 0.000000 0.974928
vn 0.623490 0.000000 0.781832
vn 0.900969 0.000000 0.433884
vn 0.900969 0.000000 0.433884
vn 0.623490 0.000000 0.781832
vn 0.900969 0.000000 0.433884
vn 1.000000 0.000000 0.000000
vn 1.000000 0.000000 0.000000
vn 0.900969 0.000000 0.433884
vn 1.000000 0.000000 0.000000
vn 0.900969 0.000000 -0.433884
vn 0.900969 0.000000 -0.433884
vn 1.000000 0.000000 0.000000
vn 0.000000 -1.000000 0.000000
vn 0.000000 -1.000000 0.000000
vn 0.000000 -1.000000 0.000000
vn 0.000000 -1.000000 0.000000
vn 0.000000 -1.000000 0.000000
vn 0.000000 -1.000000 0.000000
vn 0.000000 -1.000000 0.000000
vn 0.000000 -1.000000 0.000000
vn 0.000000 -1.000000 0.000000
vn 0.000000 -1.000000 0.000000
vn 0.000000 -1.000000 0.000000
vn 0.000000 -1.000000 0.000000
vn 0.000000 -1.000000 0.000000
vn 0.000000 -1.000000 0.000000
vn 0.000000 -1.000000 0.000000
vn 0.000000 -1.000000 0.000000
vn 0.000000 -1.000000 0.000000
vn 0.000000 -1.000000 0.000000
vn 0.000000 -1.000000 0.000000
vn 0.000000 -1.000000 0.000000
vn 0.000000 -1.000000 0.000000
vn 0.000000 -1.000000 0.000000
vn 0.000000 -1.000000 0.000000
vn 0.000000 -1.000000 0.000000
vn 0.000000 -1.000000 0.000000
vn 0.000000 -1.000000 0.000000
vn 0.000000 -1.000000 0.000000
vn 0.000000 -1.000000 0.000000
vn 0.000000 -1.000000 0.000000
vn 0.000000 -1.000000 0.000000
vn 0.000000 -1.000000 0.000000
vn 0.000000 -1.000000 0.000000
vn 0.000000 -1.000000 0.000000
vn 0.000000 -1.000000 0.000000
vn 0.000000 -1.000000 0.000000
vn 0.000000 -1.000000 0.000000
vn 0.000000 -1.000000 0.000000
vn 0.000000 -1.000000 0.000000
vn 0.000000 -1.000000 0.000000
vn 0.000000 -1.000000 0.000000
vn 0.000000 -1.000000 0.000000
vn 0.000000 -1.000000 0.000000
vn 0.000000 1.000000 0.000000
vn 0.000000 1.000000 0.000000
vn 0.000000 1.000000 0.000000
vn 0.000000 1.000000 0.000000
vn 0.000000 1.000000 0.000000
vn 0.000000 1.000000 0.000000
vn 0.000000 1.000000 0.000000
vn 0.000000 1.000000 0.000000
vn 0.000000 1.000000 0.000000
vn 0.000000 1.000000 0.000000
vn 0.000000 1.000000 0.000000
vn 0.000000 1.000000 0.000000
vn 0.000000 1.000000 0.000000
vn 0.000000 1.000000 0.000000
vn 0.000000 1.000000 0.000000
vn 0.000000 1.000000 0.000000
vn 0.000000 1.000000 0.000000
vn 0.000000 1.000000 0.000000
vn 0.000000 1.000000 0.000000
vn 0.000000 1.000000 0.000000
vn 0.000000 1.000000 0.000000
vn 0.000000 1.000000 0.000000
vn 0.000000 1.000000 0.000000
vn 0.000000 1.000000 0.000000
vn 0.000000 1.000000 0.000000
vn 0.000000 1.000000 0.000000
vn 0.000000 1.000000 0.000000
vn 0.000000 1.000000 0.000000
vn 0.000000 1.000000 0.000000
vn 0.000000 1.000000 0.000000
vn 0.000000 1.000000 0.000000
vn 0.000000 1.000000 0.000000
vn 0.000000 1.000000 0.000000
vn 0.000000 1.000000 0.000000
vn 0.000000 1.000000 0.000000
vn 0.000000 1.000000 0.000000
vn 0.000000 1.000000 0.000000
vn 0.000000 1.000000 0.000000
vn 0.000000 1.000000 0.000000
vn 0.000000 1.000000 0.000000
vn 0.000000 1.000000 0.000000
vn 0.000000 1.000000 0.000000
s off
g initialShadingGroup initialShadingGroup1 pCylinder1 polySurface1
f 1/15/1 2/16/2 16/31/3 15/30/4
f 2/16/5 3/17/6 17/32/7 16/31/8
f 3/17/9 4/18/10 18/33/11 17/32/12
f 4/18/13 5/19/14 19/34/15 18/33/16
f 5/19/17 6/20/18 20/35/19 19/34/20
f 6/20/21 7/21/22 21/36/23 20/35/24
f 7/21/25 8/22/26 22/37/27 21/36/28
f 8/22/29 9/23/30 23/38/31 22/37/32
f 9/23/33 10/24/34 24/39/35 23/38/36
f 10/24/37 11/25/38 25/40/39 24/39/40
f 11/25/41 12/26/42 26/41/43 25/40/44
f 12/26/45 13/27/46 27/42/47 26/41/48
f 13/27/49 14/28/50 28/43/51 27/42/52
f 14/28/53 1/29/54 15/44/55 28/43/56
f 2/2/57 1/1/58 29/59/59
f 3/3/60 2/2/61 29/59/62
f 4/4/63 3/3/64 29/59/65
f 5/5/66 4/4/67 29/59/68
f 6/6/69 5/5/70 29/59/71
f 7/7/72 6/6/73 29/59/74
f 8/8/75 7/7/76 29/59/77
f 9/9/78 8/8/79 29/59/80
f 10/10/81 9/9/82 29/59/83
f 11/11/84 10/10/85 29/59/86
f 12/12/87 11/11/88 29/59/89
f 13/13/90 12/12/91 29/59/92
f 14/14/93 13/13/94 29/59/95
f 1/1/96 14/14/97 29/59/98
f 15/57/99 16/56/100 30/60/101
f 16/56/102 17/55/103 30/60/104
f 17/55/105 18/54/106 30/60/107
f 18/54/108 19/53/109 30/60/110
f 19/53/111 20/52/112 30/60/113
f 20/52/114 21/51/115 30/60/116
f 21/51/117 22/50/118 30/60/119
f 22/50/120 23/49/121 30/60/122
f 23/49/123 24/48/124 30/60/125
f 24/48/126 25/47/127 30/60/128
f 25/47/129 26/46/130 30/60/131
f 26/46/132 27/45/133 30/60/134
f 27/45/135 28/58/136 30/60/137
f 28/58/138 15/57/139 30/60/140
