# This file uses centimeters as units for non-parametric coordinates.

mtllib Gun.mtl
g default
v -0.201529 -0.237123 0.163093
v 0.029868 -0.237123 0.163093
v -0.201529 0.499130 0.163093
v 0.201529 0.499130 0.163093
v -0.201529 0.499130 -0.163093
v 0.201529 0.499130 -0.163093
v -0.201529 -0.237123 -0.163093
v 0.029868 -0.237123 -0.163093
vt 0.097009 0.788622
vt 0.138000 0.788622
vt 0.138000 0.829613
vt 0.097009 0.829613
vt 0.097009 0.870604
vt 0.138000 0.870604
vt 0.138000 0.911595
vt 0.097009 0.911595
vt 0.138000 0.952586
vt 0.097009 0.952586
vt 0.178991 0.788622
vt 0.178991 0.829613
vt 0.056018 0.788622
vt 0.056018 0.829613
vn 0.000000 0.000000 1.000000
vn 0.000000 0.000000 1.000000
vn 0.000000 0.000000 1.000000
vn 0.000000 0.000000 1.000000
vn 0.000000 0.000000 -1.000000
vn 0.000000 0.000000 -1.000000
vn 0.000000 0.000000 -1.000000
vn 0.000000 0.000000 -1.000000
vn 0.000000 -1.000000 0.000000
vn 0.000000 -1.000000 0.000000
vn 0.000000 -1.000000 0.000000
vn 0.000000 -1.000000 0.000000
vn 0.973880 -0.227065 0.000000
vn 0.973880 -0.227065 0.000000
vn 0.973880 -0.227065 0.000000
vn 0.973880 -0.227065 0.000000
vn -1.000000 0.000000 0.000000
vn -1.000000 0.000000 0.000000
vn -1.000000 0.000000 0.000000
vn -1.000000 0.000000 0.000000
s off
g initialShadingGroup pCube1
f 1/1/1 2/2/2 4/3/3 3/4/4
f 5/5/5 6/6/6 8/7/7 7/8/8
f 7/8/9 8/7/10 2/9/11 1/10/12
f 2/2/13 8/11/14 6/12/15 4/3/16
f 7/13/17 1/1/18 3/4/19 5/14/20
g default
v -0.297596 0.476657 0.241826
v 1.142673 0.476657 0.241826
v -0.297596 1.032799 0.155735
v 1.320324 1.032799 0.155735
v -0.297596 1.032799 -0.155735
v 1.320324 1.032799 -0.155735
v -0.297596 0.476657 -0.241826
v 1.142673 0.476657 -0.241826
vt 0.140221 0.817216
vt 0.174004 0.817216
vt 0.174004 0.851000
vt 0.140221 0.851000
vt 0.174004 0.884783
vt 0.140221 0.884783
vt 0.174004 0.918567
vt 0.140221 0.918567
vt 0.174004 0.952351
vt 0.140221 0.952351
vt 0.207788 0.817216
vt 0.207788 0.851000
vt 0.106437 0.817216
vt 0.106437 0.851000
vn 0.000000 0.152978 0.988230
vn 0.000000 0.152978 0.988230
vn 0.000000 0.152978 0.988230
vn 0.000000 0.152978 0.988230
vn 0.000000 1.000000 0.000000
vn 0.000000 1.000000 0.000000
vn 0.000000 1.000000 0.000000
vn 0.000000 1.000000 0.000000
vn 0.000000 0.152978 -0.988230
vn 0.000000 0.152978 -0.988230
vn 0.000000 0.152978 -0.988230
vn 0.000000 0.152978 -0.988230
vn 0.000000 -1.000000 0.000000
vn 0.000000 -1.000000 0.000000
vn 0.000000 -1.000000 0.000000
vn 0.000000 -1.000000 0.000000
vn 0.952581 -0.304286 0.000000
vn 0.952581 -0.304286 0.000000
vn 0.952581 -0.304286 0.000000
vn 0.952581 -0.304286 0.000000
vn -1.000000 0.000000 0.000000
vn -1.000000 0.000000 0.000000
vn -1.000000 0.000000 0.000000
vn -1.000000 0.000000 0.000000
s off
g initialShadingGroup pCube2
f 9/15/21 10/16/22 12/17/23 11/18/24
f 11/18/25 12/17/26 14/19/27 13/20/28
f 13/20/29 14/19/30 16/21/31 15/22/32
f 15/22/33 16/21/34 10/23/35 9/24/36
f 10/16/37 16/25/38 14/26/39 12/17/40
f 15/27/41 9/15/42 11/18/43 13/28/44
g default
v 1.771742 0.859395 0.000000
v 1.771742 0.841651 -0.054610
v 1.771742 0.795197 -0.088361
v 1.771742 0.737776 -0.088361
v 1.771742 0.691322 -0.054610
v 1.771742 0.673578 0.000000
v 1.771742 0.691322 0.054610
v 1.771742 0.737776 0.088361
v 1.771742 0.795197 0.088361
v 1.771742 0.841651 0.054610
v 1.155837 0.859395 0.000000
v 1.155837 0.841651 -0.054610
v 1.155837 0.795197 -0.088361
v 1.155837 0.737776 -0.088361
v 1.155837 0.691322 -0.054610
v 1.155837 0.673578 0.000000
v 1.155837 0.691322 0.054610
v 1.155837 0.737776 0.088361
v 1.155837 0.795197 0.088361
v 1.155837 0.841651 0.054610
v 1.155837 0.952303 0.000000
v 1.155837 0.916816 -0.109220
v 1.155837 0.823907 -0.176722
v 1.155837 0.709066 -0.176722
v 1.155837 0.616158 -0.109220
v 1.155837 0.580670 0.000000
v 1.155837 0.616158 0.109220
v 1.155837 0.709066 0.176722
v 1.155837 0.823907 0.176722
v 1.155837 0.916816 0.109220
v 1.771742 0.952303 0.000000
v 1.771742 0.916816 -0.109220
v 1.771742 0.823907 -0.176722
v 1.771742 0.709066 -0.176722
v 1.771742 0.616158 -0.109220
v 1.771742 0.580670 0.000000
v 1.771742 0.616158 0.109220
v 1.771742 0.709066 0.176722
v 1.771742 0.823907 0.176722
v 1.771742 0.916816 0.109220
vt 0.751150 0.946099
vt 0.737636 0.946099
vt 0.737636 0.912316
vt 0.751150 0.912316
vt 0.764663 0.946099
vt 0.764663 0.912316
vt 0.778177 0.946099
vt 0.778177 0.912316
vt 0.791690 0.946099
vt 0.791690 0.912316
vt 0.805204 0.946099
vt 0.805204 0.912316
vt 0.818717 0.946099
vt 0.818717 0.912316
vt 0.832231 0.946099
vt 0.832231 0.912316
vt 0.845744 0.946099
vt 0.845744 0.912316
vt 0.859258 0.946099
vt 0.859258 0.912316
vt 0.872771 0.946099
vt 0.872771 0.912316
vt 0.737636 0.878532
vt 0.751150 0.878532
vt 0.764663 0.878532
vt 0.778177 0.878532
vt 0.791690 0.878532
vt 0.805204 0.878532
vt 0.818717 0.878532
vt 0.832231 0.878532
vt 0.845744 0.878532
vt 0.859258 0.878532
vt 0.872771 0.878532
vt 0.737636 0.844748
vt 0.751150 0.844748
vt 0.764663 0.844748
vt 0.778177 0.844748
vt 0.791690 0.844748
vt 0.805204 0.844748
vt 0.818717 0.844748
vt 0.832231 0.844748
vt 0.845744 0.844748
vt 0.859258 0.844748
vt 0.872771 0.844748
vt 0.737636 0.810964
vt 0.751150 0.810964
vt 0.764663 0.810964
vt 0.778177 0.810964
vt 0.791690 0.810964
vt 0.805204 0.810964
vt 0.818717 0.810964
vt 0.832231 0.810964
vt 0.845744 0.810964
vt 0.859258 0.810964
vt 0.872771 0.810964
vn 0.000000 -0.951056 0.309020
vn 0.000000 -0.951056 0.309020
vn 0.000000 -0.951056 0.309020
vn 0.000000 -0.951056 0.309020
vn 0.000000 -0.587785 0.809017
vn 0.000000 -0.587785 0.809017
vn 0.000000 -0.587785 0.809017
vn 0.000000 -0.587785 0.809017
vn 0.000000 0.000000 1.000000
vn 0.000000 0.000000 1.000000
vn 0.000000 0.000000 1.000000
vn 0.000000 0.000000 1.000000
vn 0.000000 0.587785 0.809017
vn 0.000000 0.587785 0.809017
vn 0.000000 0.587785 0.809017
vn 0.000000 0.587785 0.809017
vn 0.000000 0.951057 0.309017
vn 0.000000 0.951057 0.309017
vn 0.000000 0.951057 0.309017
vn 0.000000 0.951057 0.309017
vn 0.000000 0.951057 -0.309017
vn 0.000000 0.951057 -0.309017
vn 0.000000 0.951057 -0.309017
vn 0.000000 0.951057 -0.309017
vn 0.000000 0.587785 -0.809017
vn 0.000000 0.587785 -0.809017
vn 0.000000 0.587785 -0.809017
vn 0.000000 0.587785 -0.809017
vn 0.000000 0.000000 -1.000000
vn 0.000000 0.000000 -1.000000
vn 0.000000 0.000000 -1.000000
vn 0.000000 0.000000 -1.000000
vn 0.000000 -0.587785 -0.809017
vn 0.000000 -0.587785 -0.809017
vn 0.000000 -0.587785 -0.809017
vn 0.000000 -0.587785 -0.809017
vn 0.000000 -0.951057 -0.309017
vn 0.000000 -0.951057 -0.309017
vn 0.000000 -0.951057 -0.309017
vn 0.000000 -0.951057 -0.309017
vn -1.000000 0.000000 -0.000000
vn -1.000000 0.000000 -0.000000
vn -1.000000 0.000000 -0.000000
vn -1.000000 0.000000 -0.000000
vn -1.000000 0.000000 0.000000
vn -1.000000 0.000000 -0.000000
vn -1.000000 0.000000 -0.000000
vn -1.000000 0.000000 0.000000
vn -1.000000 0.000000 -0.000000
vn -1.000000 0.000000 0.000000
vn -1.000000 0.000000 0.000000
vn -1.000000 0.000000 -0.000000
vn -1.000000 0.000000 0.000000
vn -1.000000 0.000000 -0.000000
vn -1.000000 0.000000 -0.000000
vn -1.000000 0.000000 0.000000
vn -1.000000 0.000000 0.000000
vn -1.000000 0.000000 0.000000
vn -1.000000 0.000000 0.000000
vn -1.000000 0.000000 0.000000
vn -1.000000 0.000000 0.000000
vn -1.000000 0.000000 0.000000
vn -1.000000 0.000000 0.000000
vn -1.000000 0.000000 0.000000
vn -1.000000 0.000000 0.000000
vn -1.000000 0.000000 0.000000
vn -1.000000 0.000000 0.000000
vn -1.000000 0.000000 0.000000
vn -1.000000 0.000000 0.000000
vn -1.000000 0.000000 0.000000
vn -1.000000 0.000000 0.000000
vn -1.000000 0.000000 0.000000
vn -1.000000 0.000000 0.000000
vn -1.000000 0.000000 0.000000
vn -1.000000 0.000000 0.000000
vn -1.000000 0.000000 0.000000
vn -1.000000 0.000000 -0.000000
vn -1.000000 0.000000 0.000000
vn -1.000000 0.000000 0.000000
vn -1.000000 0.000000 -0.000000
vn 0.000000 0.951057 -0.309017
vn 0.000000 0.951057 -0.309017
vn 0.000000 0.951057 -0.309017
vn 0.000000 0.951057 -0.309017
vn 0.000000 0.587785 -0.809017
vn 0.000000 0.587785 -0.809017
vn 0.000000 0.587785 -0.809017
vn 0.000000 0.587785 -0.809017
vn 0.000000 0.000000 -1.000000
vn 0.000000 0.000000 -1.000000
vn 0.000000 0.000000 -1.000000
vn 0.000000 0.000000 -1.000000
vn 0.000000 -0.587785 -0.809017
vn 0.000000 -0.587785 -0.809017
vn 0.000000 -0.587785 -0.809017
vn 0.000000 -0.587785 -0.809017
vn 0.000000 -0.951057 -0.309017
vn 0.000000 -0.951057 -0.309017
vn 0.000000 -0.951057 -0.309017
vn 0.000000 -0.951057 -0.309017
vn 0.000000 -0.951057 0.309017
vn 0.000000 -0.951057 0.309017
vn 0.000000 -0.951057 0.309017
vn 0.000000 -0.951057 0.309017
vn 0.000000 -0.587785 0.809017
vn 0.000000 -0.587785 0.809017
vn 0.000000 -0.587785 0.809017
vn 0.000000 -0.587785 0.809017
vn 0.000000 0.000000 1.000000
vn 0.000000 0.000000 1.000000
vn 0.000000 0.000000 1.000000
vn 0.000000 0.000000 1.000000
vn 0.000000 0.587785 0.809017
vn 0.000000 0.587785 0.809017
vn 0.000000 0.587785 0.809017
vn 0.000000 0.587785 0.809017
vn 0.000000 0.951057 0.309017
vn 0.000000 0.951057 0.309017
vn 0.000000 0.951057 0.309017
vn 0.000000 0.951057 0.309017
vn 1.000000 -0.000000 0.000000
vn 1.000000 -0.000000 0.000000
vn 1.000000 -0.000000 0.000000
vn 1.000000 -0.000000 0.000000
vn 1.000000 0.000000 0.000000
vn 1.000000 -0.000000 0.000000
vn 1.000000 -0.000000 0.000000
vn 1.000000 0.000000 0.000000
vn 1.000000 0.000000 0.000000
vn 1.000000 0.000000 0.000000
vn 1.000000 0.000000 0.000000
vn 1.000000 0.000000 0.000000
vn 1.000000 -0.000000 0.000000
vn 1.000000 0.000000 0.000000
vn 1.000000 0.000000 0.000000
vn 1.000000 -0.000000 0.000000
vn 1.000000 -0.000000 0.000000
vn 1.000000 -0.000000 0.000000
vn 1.000000 -0.000000 0.000000
vn 1.000000 -0.000000 0.000000
vn 1.000000 -0.000000 0.000000
vn 1.000000 -0.000000 0.000000
vn 1.000000 -0.000000 0.000000
vn 1.000000 -0.000000 0.000000
vn 1.000000 -0.000000 0.000000
vn 1.000000 -0.000000 0.000000
vn 1.000000 -0.000000 0.000000
vn 1.000000 -0.000000 0.000000
vn 1.000000 -0.000000 0.000000
vn 1.000000 -0.000000 0.000000
vn 1.000000 -0.000000 0.000000
vn 1.000000 -0.000000 0.000000
vn 1.000000 -0.000000 0.000000
vn 1.000000 -0.000000 0.000000
vn 1.000000 -0.000000 0.000000
vn 1.000000 -0.000000 0.000000
vn 1.000000 -0.000000 0.000000
vn 1.000000 -0.000000 0.000000
vn 1.000000 -0.000000 0.000000
vn 1.000000 -0.000000 0.000000
s off
g initialShadingGroup pPipe1
f 18/29/45 17/30/46 27/31/47 28/32/48
f 19/33/49 18/29/50 28/32/51 29/34/52
f 20/35/53 19/33/54 29/34/55 30/36/56
f 21/37/57 20/35/58 30/36/59 31/38/60
f 22/39/61 21/37/62 31/38/63 32/40/64
f 23/41/65 22/39/66 32/40/67 33/42/68
f 24/43/69 23/41/70 33/42/71 34/44/72
f 25/45/73 24/43/74 34/44/75 35/46/76
f 26/47/77 25/45/78 35/46/79 36/48/80
f 17/49/81 26/47/82 36/48/83 27/50/84
f 28/32/85 27/31/86 37/51/87 38/52/88
f 29/34/89 28/32/90 38/52/91 39/53/92
f 30/36/93 29/34/94 39/53/95 40/54/96
f 31/38/97 30/36/98 40/54/99 41/55/100
f 32/40/101 31/38/102 41/55/103 42/56/104
f 33/42/105 32/40/106 42/56/107 43/57/108
f 34/44/109 33/42/110 43/57/111 44/58/112
f 35/46/113 34/44/114 44/58/115 45/59/116
f 36/48/117 35/46/118 45/59/119 46/60/120
f 27/50/121 36/48/122 46/60/123 37/61/124
f 38/52/125 37/51/126 47/62/127 48/63/128
f 39/53/129 38/52/130 48/63/131 49/64/132
f 40/54/133 39/53/134 49/64/135 50/65/136
f 41/55/137 40/54/138 50/65/139 51/66/140
f 42/56/141 41/55/142 51/66/143 52/67/144
f 43/57/145 42/56/146 52/67/147 53/68/148
f 44/58/149 43/57/150 53/68/151 54/69/152
f 45/59/153 44/58/154 54/69/155 55/70/156
f 46/60/157 45/59/158 55/70/159 56/71/160
f 37/61/161 46/60/162 56/71/163 47/72/164
f 48/63/165 47/62/166 17/73/167 18/74/168
f 49/64/169 48/63/170 18/74/171 19/75/172
f 50/65/173 49/64/174 19/75/175 20/76/176
f 51/66/177 50/65/178 20/76/179 21/77/180
f 52/67/181 51/66/182 21/77/183 22/78/184
f 53/68/185 52/67/186 22/78/187 23/79/188
f 54/69/189 53/68/190 23/79/191 24/80/192
f 55/70/193 54/69/194 24/80/195 25/81/196
f 56/71/197 55/70/198 25/81/199 26/82/200
f 47/72/201 56/71/202 26/82/203 17/83/204
g default
v 0.615175 0.997821 -0.080750
v 0.615175 0.960704 -0.153596
v 0.615175 0.902894 -0.211406
v 0.615175 0.830048 -0.248523
v 0.615175 0.749298 -0.261313
v 0.615175 0.668548 -0.248523
v 0.615175 0.595702 -0.211406
v 0.615175 0.537892 -0.153596
v 0.615175 0.500775 -0.080750
v 0.615175 0.487985 0.000000
v 0.615175 0.500775 0.080750
v 0.615175 0.537892 0.153596
v 0.615175 0.595702 0.211406
v 0.615175 0.668548 0.248523
v 0.615175 0.749298 0.261313
v 0.615175 0.830048 0.248523
v 0.615175 0.902894 0.211406
v 0.615175 0.960704 0.153596
v 0.615175 0.997821 0.080750
v 0.615175 1.010610 0.000000
v 0.092550 0.997821 -0.080750
v 0.092550 0.960704 -0.153596
v 0.092550 0.902894 -0.211406
v 0.092550 0.830048 -0.248523
v 0.092550 0.749298 -0.261313
v 0.092550 0.668548 -0.248523
v 0.092550 0.595702 -0.211406
v 0.092550 0.537892 -0.153596
v 0.092550 0.500775 -0.080750
v 0.092550 0.487985 0.000000
v 0.092550 0.500775 0.080750
v 0.092550 0.537892 0.153596
v 0.092550 0.595702 0.211406
v 0.092550 0.668548 0.248523
v 0.092550 0.749298 0.261313
v 0.092550 0.830048 0.248523
v 0.092550 0.902894 0.211406
v 0.092550 0.960704 0.153596
v 0.092550 0.997821 0.080750
v 0.092550 1.010610 0.000000
v 0.615175 0.749298 0.000000
v 0.092550 0.749298 0.000000
vt 0.066501 0.122254
vt 0.068430 0.122254
vt 0.068430 0.180282
vt 0.066501 0.180282
vt 0.070360 0.122254
vt 0.070360 0.180282
vt 0.072289 0.122254
vt 0.072289 0.180282
vt 0.074219 0.122254
vt 0.074219 0.180282
vt 0.076148 0.122254
vt 0.076148 0.180282
vt 0.078077 0.122254
vt 0.078077 0.180282
vt 0.080007 0.122254
vt 0.080007 0.180282
vt 0.081936 0.122254
vt 0.081936 0.180282
vt 0.083866 0.122254
vt 0.083866 0.180282
vt 0.085795 0.122254
vt 0.085795 0.180282
vt 0.087725 0.122254
vt 0.087725 0.180282
vt 0.089654 0.122254
vt 0.089654 0.180282
vt 0.091583 0.122254
vt 0.091583 0.180282
vt 0.093513 0.122254
vt 0.093513 0.180282
vt 0.095442 0.122254
vt 0.095442 0.180282
vt 0.097372 0.122254
vt 0.097372 0.180282
vt 0.099301 0.122254
vt 0.099301 0.180282
vt 0.101231 0.122254
vt 0.101231 0.180282
vt 0.103160 0.122254
vt 0.103160 0.180282
vt 0.105089 0.122254
vt 0.105089 0.180282
vt 0.105307 0.083960
vt 0.108733 0.090684
vt 0.085795 0.097172
vt 0.099971 0.078625
vt 0.093248 0.075199
vt 0.085795 0.074019
vt 0.078342 0.075199
vt 0.071619 0.078625
vt 0.066283 0.083960
vt 0.062858 0.090684
vt 0.061677 0.098137
vt 0.062858 0.105589
vt 0.066283 0.112313
vt 0.071619 0.117648
vt 0.078342 0.121074
vt 0.085795 0.122254
vt 0.093248 0.121074
vt 0.099971 0.117648
vt 0.105307 0.112313
vt 0.108733 0.105589
vt 0.109913 0.098137
vt 0.108733 0.211708
vt 0.105307 0.218431
vt 0.085795 0.203290
vt 0.099971 0.223767
vt 0.093248 0.227193
vt 0.085795 0.228373
vt 0.078342 0.227193
vt 0.071619 0.223767
vt 0.066283 0.218431
vt 0.062858 0.211708
vt 0.061677 0.204255
vt 0.062858 0.196802
vt 0.066283 0.190079
vt 0.071619 0.184743
vt 0.078342 0.181318
vt 0.085795 0.180137
vt 0.093248 0.181318
vt 0.099971 0.184743
vt 0.105307 0.190079
vt 0.108733 0.196802
vt 0.109913 0.204255
vn 0.000000 0.891006 -0.453992
vn 0.000000 0.891006 -0.453992
vn 0.000000 0.891006 -0.453992
vn 0.000000 0.891006 -0.453992
vn 0.000000 0.809017 -0.587785
vn 0.000000 0.587785 -0.809017
vn 0.000000 0.587785 -0.809017
vn 0.000000 0.809017 -0.587785
vn 0.000000 0.587785 -0.809017
vn 0.000000 0.309017 -0.951057
vn 0.000000 0.309017 -0.951057
vn 0.000000 0.587785 -0.809017
vn 0.000000 0.309017 -0.951057
vn 0.000000 0.000000 -1.000000
vn 0.000000 0.000000 -1.000000
vn 0.000000 0.309017 -0.951057
vn 0.000000 0.000000 -1.000000
vn 0.000000 -0.309017 -0.951056
vn 0.000000 -0.309017 -0.951056
vn 0.000000 0.000000 -1.000000
vn 0.000000 -0.309017 -0.951056
vn 0.000000 -0.587785 -0.809017
vn 0.000000 -0.587785 -0.809017
vn 0.000000 -0.309017 -0.951056
vn 0.000000 -0.587785 -0.809017
vn 0.000000 -0.809017 -0.587785
vn 0.000000 -0.809017 -0.587785
vn 0.000000 -0.587785 -0.809017
vn 0.000000 -0.809017 -0.587785
vn 0.000000 -0.951057 -0.309017
vn 0.000000 -0.951057 -0.309017
vn 0.000000 -0.809017 -0.587785
vn 0.000000 -0.951057 -0.309017
vn 0.000000 -1.000000 0.000000
vn 0.000000 -1.000000 0.000000
vn 0.000000 -0.951057 -0.309017
vn 0.000000 -1.000000 0.000000
vn 0.000000 -0.951056 0.309017
vn 0.000000 -0.951056 0.309017
vn 0.000000 -1.000000 0.000000
vn 0.000000 -0.951056 0.309017
vn 0.000000 -0.809017 0.587785
vn 0.000000 -0.809017 0.587785
vn 0.000000 -0.951056 0.309017
vn 0.000000 -0.809017 0.587785
vn 0.000000 -0.587785 0.809017
vn 0.000000 -0.587785 0.809017
vn 0.000000 -0.809017 0.587785
vn 0.000000 -0.587785 0.809017
vn 0.000000 -0.309017 0.951057
vn 0.000000 -0.309017 0.951057
vn 0.000000 -0.587785 0.809017
vn 0.000000 -0.309017 0.951057
vn 0.000000 0.000000 1.000000
vn 0.000000 0.000000 1.000000
vn 0.000000 -0.309017 0.951057
vn 0.000000 0.000000 1.000000
vn 0.000000 0.309017 0.951056
vn 0.000000 0.309017 0.951056
vn 0.000000 0.000000 1.000000
vn 0.000000 0.309017 0.951056
vn 0.000000 0.587785 0.809017
vn 0.000000 0.587785 0.809017
vn 0.000000 0.309017 0.951056
vn 0.000000 0.587785 0.809017
vn 0.000000 0.809017 0.587785
vn 0.000000 0.809017 0.587785
vn 0.000000 0.587785 0.809017
vn 0.000000 0.809017 0.587785
vn 0.000000 0.951057 0.309017
vn 0.000000 0.951057 0.309017
vn 0.000000 0.809017 0.587785
vn 0.000000 0.951057 0.309017
vn 0.000000 1.000000 0.000001
vn 0.000000 1.000000 0.000001
vn 0.000000 0.951057 0.309017
vn 0.000000 1.000000 0.000001
vn 0.000000 0.951057 -0.309016
vn 0.000000 0.951057 -0.309016
vn 0.000000 1.000000 0.000001
vn 1.000000 -0.000000 0.000000
vn 1.000000 -0.000000 0.000000
vn 1.000000 -0.000000 0.000000
vn 1.000000 -0.000000 0.000000
vn 1.000000 -0.000000 0.000000
vn 1.000000 -0.000000 0.000000
vn 1.000000 -0.000000 0.000000
vn 1.000000 -0.000000 0.000000
vn 1.000000 -0.000000 0.000000
vn 1.000000 -0.000000 0.000000
vn 1.000000 -0.000000 0.000000
vn 1.000000 -0.000000 0.000000
vn 1.000000 -0.000000 0.000000
vn 1.000000 -0.000000 0.000000
vn 1.000000 -0.000000 0.000000
vn 1.000000 -0.000000 0.000000
vn 1.000000 -0.000000 0.000000
vn 1.000000 -0.000000 0.000000
vn 1.000000 -0.000000 0.000000
vn 1.000000 -0.000000 0.000000
vn 1.000000 -0.000000 0.000000
vn 1.000000 -0.000000 0.000000
vn 1.000000 -0.000000 0.000000
vn 1.000000 -0.000000 0.000000
vn 1.000000 -0.000000 0.000000
vn 1.000000 -0.000000 0.000000
vn 1.000000 -0.000000 0.000000
vn 1.000000 -0.000000 0.000000
vn 1.000000 -0.000000 0.000000
vn 1.000000 -0.000000 0.000000
vn 1.000000 -0.000000 0.000000
vn 1.000000 -0.000000 0.000000
vn 1.000000 -0.000000 0.000000
vn 1.000000 -0.000000 0.000000
vn 1.000000 -0.000000 0.000000
vn 1.000000 -0.000000 0.000000
vn 1.000000 -0.000000 0.000000
vn 1.000000 -0.000000 0.000000
vn 1.000000 -0.000000 0.000000
vn 1.000000 -0.000000 0.000000
vn 1.000000 -0.000000 0.000000
vn 1.000000 -0.000000 0.000000
vn 1.000000 -0.000000 0.000000
vn 1.000000 -0.000000 0.000000
vn 1.000000 -0.000000 0.000000
vn 1.000000 -0.000000 0.000000
vn 1.000000 -0.000000 0.000000
vn 1.000000 -0.000000 0.000000
vn 1.000000 -0.000000 0.000000
vn 1.000000 -0.000000 0.000000
vn 1.000000 -0.000000 0.000000
vn 1.000000 -0.000000 0.000000
vn 1.000000 -0.000000 0.000000
vn 1.000000 -0.000000 0.000000
vn 1.000000 -0.000000 0.000000
vn 1.000000 -0.000000 0.000000
vn 1.000000 -0.000000 0.000000
vn 1.000000 -0.000000 0.000000
vn 1.000000 -0.000000 0.000000
vn 1.000000 -0.000000 0.000000
vn -1.000000 0.000000 0.000000
vn -1.000000 0.000000 0.000000
vn -1.000000 0.000000 0.000000
vn -1.000000 0.000000 0.000000
vn -1.000000 0.000000 0.000000
vn -1.000000 0.000000 0.000000
vn -1.000000 0.000000 0.000000
vn -1.000000 0.000000 0.000000
vn -1.000000 0.000000 0.000000
vn -1.000000 0.000000 0.000000
vn -1.000000 0.000000 0.000000
vn -1.000000 0.000000 0.000000
vn -1.000000 0.000000 0.000000
vn -1.000000 0.000000 0.000000
vn -1.000000 0.000000 0.000000
vn -1.000000 0.000000 0.000000
vn -1.000000 0.000000 0.000000
vn -1.000000 0.000000 0.000000
vn -1.000000 0.000000 0.000000
vn -1.000000 0.000000 0.000000
vn -1.000000 0.000000 0.000000
vn -1.000000 0.000000 0.000000
vn -1.000000 0.000000 0.000000
vn -1.000000 0.000000 0.000000
vn -1.000000 0.000000 0.000000
vn -1.000000 0.000000 0.000000
vn -1.000000 0.000000 0.000000
vn -1.000000 0.000000 0.000000
vn -1.000000 0.000000 0.000000
vn -1.000000 0.000000 0.000000
vn -1.000000 0.000000 0.000000
vn -1.000000 0.000000 0.000000
vn -1.000000 0.000000 0.000000
vn -1.000000 0.000000 0.000000
vn -1.000000 0.000000 0.000000
vn -1.000000 0.000000 0.000000
vn -1.000000 0.000000 0.000000
vn -1.000000 0.000000 0.000000
vn -1.000000 0.000000 0.000000
vn -1.000000 0.000000 0.000000
vn -1.000000 0.000000 0.000000
vn -1.000000 0.000000 0.000000
vn -1.000000 0.000000 0.000000
vn -1.000000 0.000000 0.000000
vn -1.000000 0.000000 0.000000
vn -1.000000 0.000000 0.000000
vn -1.000000 0.000000 0.000000
vn -1.000000 0.000000 0.000000
vn -1.000000 0.000000 0.000000
vn -1.000000 0.000000 0.000000
vn -1.000000 0.000000 0.000000
vn -1.000000 0.000000 0.000000
vn -1.000000 0.000000 0.000000
vn -1.000000 0.000000 0.000000
vn -1.000000 0.000000 0.000000
vn -1.000000 0.000000 0.000000
vn -1.000000 0.000000 0.000000
vn -1.000000 0.000000 0.000000
vn -1.000000 0.000000 0.000000
vn -1.000000 0.000000 0.000000
s off
g initialShadingGroup pCylinder1
f 57/84/205 58/85/206 78/86/207 77/87/208
f 58/85/209 59/88/210 79/89/211 78/86/212
f 59/88/213 60/90/214 80/91/215 79/89/216
f 60/90/217 61/92/218 81/93/219 80/91/220
f 61/92/221 62/94/222 82/95/223 81/93/224
f 62/94/225 63/96/226 83/97/227 82/95/228
f 63/96/229 64/98/230 84/99/231 83/97/232
f 64/98/233 65/100/234 85/101/235 84/99/236
f 65/100/237 66/102/238 86/103/239 85/101/240
f 66/102/241 67/104/242 87/105/243 86/103/244
f 67/104/245 68/106/246 88/107/247 87/105/248
f 68/106/249 69/108/250 89/109/251 88/107/252
f 69/108/253 70/110/254 90/111/255 89/109/256
f 70/110/257 71/112/258 91/113/259 90/111/260
f 71/112/261 72/114/262 92/115/263 91/113/264
f 72/114/265 73/116/266 93/117/267 92/115/268
f 73/116/269 74/118/270 94/119/271 93/117/272
f 74/118/273 75/120/274 95/121/275 94/119/276
f 75/120/277 76/122/278 96/123/279 95/121/280
f 76/122/281 57/124/282 77/125/283 96/123/284
f 58/126/285 57/127/286 97/128/287
f 59/129/288 58/126/289 97/128/290
f 60/130/291 59/129/292 97/128/293
f 61/131/294 60/130/295 97/128/296
f 62/132/297 61/131/298 97/128/299
f 63/133/300 62/132/301 97/128/302
f 64/134/303 63/133/304 97/128/305
f 65/135/306 64/134/307 97/128/308
f 66/136/309 65/135/310 97/128/311
f 67/137/312 66/136/313 97/128/314
f 68/138/315 67/137/316 97/128/317
f 69/139/318 68/138/319 97/128/320
f 70/140/321 69/139/322 97/128/323
f 71/141/324 70/140/325 97/128/326
f 72/142/327 71/141/328 97/128/329
f 73/143/330 72/142/331 97/128/332
f 74/144/333 73/143/334 97/128/335
f 75/145/336 74/144/337 97/128/338
f 76/146/339 75/145/340 97/128/341
f 57/127/342 76/146/343 97/128/344
f 77/147/345 78/148/346 98/149/347
f 78/148/348 79/150/349 98/149/350
f 79/150/351 80/151/352 98/149/353
f 80/151/354 81/152/355 98/149/356
f 81/152/357 82/153/358 98/149/359
f 82/153/360 83/154/361 98/149/362
f 83/154/363 84/155/364 98/149/365
f 84/155/366 85/156/367 98/149/368
f 85/156/369 86/157/370 98/149/371
f 86/157/372 87/158/373 98/149/374
f 87/158/375 88/159/376 98/149/377
f 88/159/378 89/160/379 98/149/380
f 89/160/381 90/161/382 98/149/383
f 90/161/384 91/162/385 98/149/386
f 91/162/387 92/163/388 98/149/389
f 92/163/390 93/164/391 98/149/392
f 93/164/393 94/165/394 98/149/395
f 94/165/396 95/166/397 98/149/398
f 95/166/399 96/167/400 98/149/401
f 96/167/402 77/147/403 98/149/404
